# File created by Blade
# Date/Time:  Thu Jan 22 16:00:44 2015
# Frame Rate: 120.000 fps
#------------------------------------------------------
:FULLY-SPECIFIED
:DEGREES
1448
root 2.420293 37.095879 7.037933 3.140413 -4.563105 2.033931
RightUpLeg 6.313056 3.424606 -4.402828
RightLeg -5.899184 -0.000000 0.000000
RightFoot -11.004641 -10.784694 17.495951
RightToeBase 13.728466 -0.000000 -0.000000
LeftUpLeg 4.935071 7.676258 3.243251
LeftLeg -3.945092 -0.000000 0.000000
LeftFoot -5.704375 5.564131 -19.440898
LeftToeBase 8.543384 -0.000000 -0.000000
Spine -7.240580 -11.061190 -4.382934
RightShoulder -19.719118 15.785794 -44.494865
RightArm 147.143802 44.823676 93.785131
RightForeArm 37.990791 -0.000000 149.466280
RightHand 23.978168 -0.000000 -9.618227
RightHandThumb1 -24.326973 -0.000000 -32.862282
LeftShoulder -6.219861 51.079457 1.885072
LeftArm 122.763241 36.060676 35.796006
LeftForeArm 47.888071 0.000000 134.840843
LeftHand -19.231141 -0.000000 3.441007
LeftHandThumb1 -26.253704 0.000000 33.147579
Head 33.164495 20.848585 17.040941
1449
root 2.421302 37.095905 7.036925 3.133540 -4.558637 2.035157
RightUpLeg 6.319693 3.417959 -4.403793
RightLeg -5.902043 -0.000000 0.000000
RightFoot -11.001160 -10.789958 17.488674
RightToeBase 13.724614 -0.000000 -0.000000
LeftUpLeg 4.934305 7.679866 3.242864
LeftLeg -3.935024 -0.000000 0.000000
LeftFoot -5.694818 5.540987 -19.508492
LeftToeBase 8.501791 -0.000000 -0.000000
Spine -7.237169 -11.071448 -4.373912
RightShoulder -19.727644 15.762367 -44.495668
RightArm 147.126396 44.801620 93.795909
RightForeArm 37.998055 -0.000000 149.479993
RightHand 23.961546 -0.000000 -9.572541
RightHandThumb1 -24.326973 -0.000000 -32.862282
LeftShoulder -6.230878 51.099141 1.877568
LeftArm 122.711437 36.068904 35.757462
LeftForeArm 47.878957 0.000000 134.860704
LeftHand -19.017994 -0.000000 3.214560
LeftHandThumb1 -26.253704 0.000000 33.147579
Head 33.179741 20.835343 17.054213
1450
root 2.422905 37.096084 7.037516 3.113271 -4.560031 2.030138
RightUpLeg 6.333156 3.368868 -4.404604
RightLeg -5.888221 -0.000000 0.000000
RightFoot -10.990311 -10.731216 17.488029
RightToeBase 13.740699 -0.000000 -0.000000
LeftUpLeg 4.958268 7.665163 3.247298
LeftLeg -3.940227 -0.000000 0.000000
LeftFoot -5.687805 5.552528 -19.488452
LeftToeBase 8.434280 -0.000000 -0.000000
Spine -7.219929 -11.079904 -4.353313
RightShoulder -19.727537 15.774659 -44.505395
RightArm 147.073850 44.788847 93.772723
RightForeArm 38.008306 -0.000000 149.485960
RightHand 23.952496 -0.000000 -9.519127
RightHandThumb1 -24.326973 -0.000000 -32.862282
LeftShoulder -6.248684 51.093326 1.859277
LeftArm 122.706455 36.080927 35.768188
LeftForeArm 47.905707 -0.000000 134.874138
LeftHand -18.803513 0.000000 2.998110
LeftHandThumb1 -26.253704 0.000000 33.147579
Head 33.198252 20.837854 17.052822
1451
root 2.421913 37.096505 7.035873 3.106778 -4.565235 2.017507
RightUpLeg 6.329660 3.352263 -4.391184
RightLeg -5.876054 -0.000000 0.000000
RightFoot -10.978948 -10.718876 17.487171
RightToeBase 13.723117 -0.000000 -0.000000
LeftUpLeg 4.961996 7.665254 3.261752
LeftLeg -3.932514 -0.000000 0.000000
LeftFoot -5.689316 5.559921 -19.388694
LeftToeBase 8.467045 -0.000000 -0.000000
Spine -7.217839 -11.078536 -4.334279
RightShoulder -19.734723 15.757207 -44.492436
RightArm 147.039939 44.785931 93.756441
RightForeArm 38.015266 -0.000000 149.492593
RightHand 23.976532 -0.000000 -9.465080
RightHandThumb1 -24.326973 -0.000000 -32.862282
LeftShoulder -6.253935 51.106266 1.857076
LeftArm 122.653377 36.089535 35.722875
LeftForeArm 47.877851 -0.000000 134.886518
LeftHand -18.601351 0.000000 2.797738
LeftHandThumb1 -26.253704 0.000000 33.147579
Head 33.221628 20.824200 17.079107
1452
root 2.423543 37.096812 7.035582 3.097503 -4.570920 2.014162
RightUpLeg 6.331627 3.312655 -4.394008
RightLeg -5.864001 -0.000000 0.000000
RightFoot -10.962394 -10.672329 17.464475
RightToeBase 13.701562 -0.000000 -0.000000
LeftUpLeg 4.973187 7.665775 3.263274
LeftLeg -3.935166 -0.000000 0.000000
LeftFoot -5.685465 5.566464 -19.378583
LeftToeBase 8.410634 -0.000000 -0.000000
Spine -7.214365 -11.069099 -4.317606
RightShoulder -19.742978 15.762659 -44.508416
RightArm 146.997154 44.777190 93.741768
RightForeArm 38.015235 -0.000000 149.493757
RightHand 23.948421 -0.000000 -9.398024
RightHandThumb1 -24.326973 -0.000000 -32.862282
LeftShoulder -6.249647 51.091340 1.855834
LeftArm 122.620170 36.118099 35.699626
LeftForeArm 47.892848 -0.000000 134.912317
LeftHand -18.384057 -0.000000 2.576250
LeftHandThumb1 -26.253704 0.000000 33.147579
Head 33.239433 20.819971 17.090838
